# xmcd
#
# Track frame offsets:
#	180
#	22273
#	39559
#	62726
#	81201
#	98263
#	123018
#	143244
#	158880
#	175770
#	196658
#	215997
#
# Disc length: 3193 seconds
#
# Revision: 0
# Processed by: cddbd v1.5.1PL2 Copyright (c) Steve Scherf et al.
# Submitted via: EasyCDDAExtractor 8.0.1.1
#
DISCID=9e0c770c
DTITLE=Blue 88 - Paying Dues
DYEAR=1999
DGENRE=Blues
TTITLE0=Shot Down
TTITLE1=You Always Feel Blue
TTITLE2=Dead of Night
TTITLE3=Little Francis
TTITLE4=Sorry I Brought It Up
TTITLE5=Pay Your Dues
TTITLE6=Are You Into It?
TTITLE7=Medicine Man (for Chris)
TTITLE8=Torn Up Wonderin'
TTITLE9=Had Myself Fooled
TTITLE10=Hiding Place
TTITLE11=If This Dog Gets Loose
EXTD=
EXTT0=
EXTT1=
EXTT2=
EXTT3=
EXTT4=
EXTT5=
EXTT6=
EXTT7=
EXTT8=
EXTT9=
EXTT10=
EXTT11=
PLAYORDER=
